HIERARCHY
ROOT root
{
	OFFSET 0.000000 0.000000 0.000000
	CHANNELS 6 Xposition Yposition Zposition Zrotation Yrotation Xrotation
	JOINT lhip
	{
		OFFSET 0.058581 -0.082280 -0.017664
		CHANNELS 3 Zrotation Yrotation Xrotation
		JOINT lknee
		{
			OFFSET 0.043451 -0.386469 0.008037
			CHANNELS 3 Zrotation Yrotation Xrotation
			JOINT lankle
			{
				OFFSET -0.014790 -0.426874 -0.037428
				CHANNELS 3 Zrotation Yrotation Xrotation
				JOINT ltoe
				{
					OFFSET 0.041054 -0.060286 0.122042
					CHANNELS 3 Zrotation Yrotation Xrotation
					End Site
					{
						OFFSET 0.000000 0.000000 0.000000
					}
				}
			}
		}
	}
	JOINT rhip
	{
		OFFSET -0.060310 -0.090513 -0.013543
		CHANNELS 3 Zrotation Yrotation Xrotation
		JOINT rknee
		{
			OFFSET -0.043257 -0.383688 -0.004843
			CHANNELS 3 Zrotation Yrotation Xrotation
			JOINT rankle
			{
				OFFSET 0.019056 -0.420046 -0.034562
				CHANNELS 3 Zrotation Yrotation Xrotation
				JOINT rtoe
				{
					OFFSET -0.034840 -0.062106 0.130323
					CHANNELS 3 Zrotation Yrotation Xrotation
					End Site
					{
						OFFSET 0.000000 0.000000 0.000000
					}
				}
			}
		}
	}
	JOINT lowerback
	{
		OFFSET 0.004439 0.124404 -0.038385
		CHANNELS 3 Zrotation Yrotation Xrotation
		JOINT upperback
		{
			OFFSET 0.004488 0.137956 0.026820
			CHANNELS 3 Zrotation Yrotation Xrotation
			JOINT chest
			{
				OFFSET -0.002265 0.056032 0.002855
				CHANNELS 3 Zrotation Yrotation Xrotation
				JOINT lowerneck
				{
					OFFSET -0.013390 0.211636 -0.033468
					CHANNELS 3 Zrotation Yrotation Xrotation
					JOINT upperneck
					{
						OFFSET 0.010113 0.088937 0.050410
						CHANNELS 3 Zrotation Yrotation Xrotation
						End Site
						{
							OFFSET 0.000000 0.000000 0.000000
						}
					}
				}
				JOINT lclavicle
				{
					OFFSET 0.071702 0.114000 -0.018898
					CHANNELS 3 Zrotation Yrotation Xrotation
					JOINT lshoulder
					{
						OFFSET 0.122921 0.045205 -0.019046
						CHANNELS 3 Zrotation Yrotation Xrotation
						JOINT lelbow
						{
							OFFSET 0.255332 -0.015649 -0.022946
							CHANNELS 3 Zrotation Yrotation Xrotation
							JOINT lwrist
							{
								OFFSET 0.265709 0.012698 -0.007375
								CHANNELS 3 Zrotation Yrotation Xrotation
								End Site
								{
									OFFSET 0.000000 0.000000 0.000000
								}
							}
						}
					}
				}
				JOINT rclavicle
				{
					OFFSET -0.082954 0.112472 -0.023707
					CHANNELS 3 Zrotation Yrotation Xrotation
					JOINT rshoulder
					{
						OFFSET -0.113228 0.046853 -0.008472
						CHANNELS 3 Zrotation Yrotation Xrotation
						JOINT relbow
						{
							OFFSET -0.260127 -0.014369 -0.031269
							CHANNELS 3 Zrotation Yrotation Xrotation
							JOINT rwrist
							{
								OFFSET -0.269108 0.006794 -0.006027
								CHANNELS 3 Zrotation Yrotation Xrotation
								End Site
								{
									OFFSET 0.000000 0.000000 0.000000
								}
							}
						}
					}
				}
			}
		}
	}
}
MOTION
Frames: 8
Frame Time: 0.033333
1.239923 0.009581 1.006436 95.510015 1.253606 92.361654 4.968385 1.460611 -5.353704 -7.834964 2.266509 2.011341 5.449048 5.002738 -8.228749 0.000000 -0.000000 0.000000 -3.533061 1.066896 -10.063836 7.633415 -2.282022 14.953279 0.777701 3.636140 -8.041554 0.000000 -0.000000 0.000000 0.044074 0.460062 -1.073186 2.606097 -2.042755 -2.055010 -2.212143 -0.341381 -4.229505 4.344356 -32.646693 6.074655 6.041593 -38.116588 5.430649 -22.317195 1.256626 4.930456 -63.015893 -17.915160 11.511690 21.309305 -24.832228 -10.812792 -4.852528 -5.738638 -20.995015 21.189203 5.963837 3.269645 62.600410 18.925354 10.430285 -19.933209 20.165713 -6.001552 10.911867 3.524755 -12.257012 
1.238625 0.009332 1.006520 95.429107 1.257993 92.463745 4.969925 1.392691 -5.590252 -7.843132 2.104912 2.067778 5.409087 5.357141 -8.116918 0.000000 -0.000000 0.000000 -3.504911 1.121509 -10.328161 7.728241 -1.843751 15.005268 1.131247 3.115892 -7.944876 0.000000 -0.000000 0.000000 0.038225 0.309981 -0.792730 2.472717 -1.913947 -2.659501 -2.073267 -0.407877 -3.635348 4.591870 -32.552801 5.352400 5.842884 -38.053449 5.721325 -21.524495 1.395025 4.808822 -63.498479 -18.092758 12.310991 20.580418 -24.920237 -10.174741 -2.926183 -5.485507 -23.318567 20.630010 5.946174 2.864987 62.395667 18.959276 11.434829 -18.373506 20.539974 -5.022357 9.516408 3.647151 -14.122454 
1.237500 0.009163 1.006781 95.542424 1.271111 92.367409 4.989334 1.290895 -5.633468 -7.857487 1.913228 2.078136 5.331303 5.612756 -8.071013 0.000000 -0.000000 0.000000 -3.423968 1.167335 -10.317006 7.751741 -1.604864 14.905380 1.240055 2.730793 -7.810523 0.000000 -0.000000 0.000000 -0.043557 0.174774 -0.555512 2.476157 -2.043771 -2.816499 -1.883346 -0.566481 -3.323354 4.517743 -32.546302 5.089633 6.156058 -37.735699 5.399709 -20.892075 0.960883 4.857492 -63.428553 -18.152788 12.792529 19.518374 -24.861267 -10.277086 -1.169520 -4.988129 -24.565749 20.133724 6.428368 2.605502 61.189964 19.341085 12.062497 -15.662535 20.384696 -2.539461 8.696485 3.490307 -14.096197 
1.235197 0.008994 1.007563 95.701686 1.304440 92.115296 4.975557 1.254886 -5.582169 -7.803960 1.654263 2.124324 5.116348 5.857844 -7.999809 0.000000 -0.000000 0.000000 -3.262619 1.335083 -10.235417 7.711697 -1.384944 14.862241 1.294008 2.220317 -7.654666 0.000000 -0.000000 0.000000 -0.172361 -0.050637 0.101845 2.487699 -2.371200 -2.727055 -1.539925 -0.787152 -3.221369 4.561428 -32.346150 4.292569 6.401328 -37.264627 5.137042 -20.417058 -0.407411 5.226297 -62.320427 -17.922467 12.796980 18.286871 -24.944558 -11.464754 -0.117205 -5.184393 -25.333631 19.764832 8.048827 2.677029 59.260970 19.901452 12.212067 -13.090169 19.881567 -1.153365 8.956004 3.712766 -13.346911 
1.233376 0.008982 1.008163 95.747942 1.311227 91.950256 4.927412 1.245976 -5.590036 -7.725150 1.544142 2.247454 4.986192 5.998341 -7.980205 0.000000 -0.000000 0.000000 -3.156540 1.531676 -10.233602 7.631376 -1.278041 14.925310 1.243918 1.878435 -7.618308 0.000000 -0.000000 0.000000 -0.229833 -0.174250 0.664007 2.475473 -2.589141 -2.549262 -1.367821 -0.888764 -3.175308 4.930668 -32.025732 3.415154 6.675423 -36.943998 4.698592 -20.343262 -1.400034 5.447096 -61.300868 -17.809006 12.691489 17.668756 -25.104852 -12.312310 0.666477 -5.368851 -25.781101 19.644227 9.183508 2.791162 58.347722 20.302762 12.255539 -12.061958 20.078898 -1.958160 7.811870 4.078879 -14.465990 
1.230247 0.009072 1.008797 95.684623 1.302256 91.791412 4.838004 1.191037 -5.718806 -7.585984 1.513839 2.475070 4.831845 6.231526 -7.944063 0.000000 -0.000000 0.000000 -3.024348 1.895742 -10.466991 7.463533 -1.163940 15.225360 1.211062 1.453310 -7.606766 0.000000 -0.000000 0.000000 -0.331548 -0.295109 1.685659 2.482238 -2.797004 -2.472076 -1.168082 -0.972320 -3.031479 5.779461 -31.163785 1.668313 6.946638 -36.471550 4.261146 -20.204350 -2.691271 5.397182 -60.035437 -17.819913 12.630512 16.808701 -25.294166 -12.880784 2.290424 -5.212118 -25.583510 19.579006 10.461289 2.736026 57.386722 20.927025 12.520280 -11.172486 21.092609 -3.017310 5.527438 4.435386 -15.888078 
1.226497 0.009357 1.009275 95.544775 1.304053 91.857996 4.748944 1.118029 -6.086747 -7.406970 1.597818 2.701859 4.692017 6.438517 -7.869873 0.000000 -0.000000 0.000000 -2.841151 2.170476 -10.942353 7.188244 -0.940762 15.481583 1.225337 1.082037 -7.500072 0.000000 -0.000000 0.000000 -0.469733 -0.399276 2.778501 2.538731 -2.919429 -2.669771 -0.919753 -1.055788 -2.837863 6.552184 -29.769901 -0.323320 6.888402 -35.572953 4.417165 -19.992474 -3.695878 5.091872 -59.251570 -18.078624 12.449372 16.582078 -25.681387 -14.003068 3.971882 -4.650863 -25.456962 19.678367 11.284791 2.444659 56.534585 21.681988 12.940332 -11.047785 22.700811 -3.134600 4.506393 4.391770 -15.557693 
1.222318 0.009699 1.009812 95.262027 1.274435 92.323568 4.610965 1.102703 -6.789354 -7.229974 1.824216 2.748752 4.611195 6.612160 -7.665167 0.000000 -0.000000 0.000000 -2.715717 2.248842 -11.929448 6.892121 -0.703791 15.797398 1.339782 0.957417 -7.247879 0.000000 -0.000000 0.000000 -0.622242 -0.467985 3.558357 2.574191 -2.895444 -3.050908 -0.707148 -1.125967 -2.691195 7.087695 -27.962231 -2.062670 6.611874 -34.175320 4.944345 -19.870701 -4.189108 4.641984 -58.653817 -18.449671 12.235305 17.163510 -26.809531 -15.726739 5.492439 -3.524456 -25.571704 19.882230 11.713966 2.103380 55.577829 22.628398 13.453374 -10.940623 24.824249 -3.211543 3.982514 4.011071 -15.658282 
